<svg xmlns="http://www.w3.org/2000/svg" xmlns:xlink="http://www.w3.org/1999/xlink" width="1200" zoomAndPan="magnify" viewBox="0 0 900 472.499986" height="630" preserveAspectRatio="xMidYMid meet" version="1.2"><defs><clipPath id="fe2e346452"><path d="M 0.476562 0 L 899.523438 0 L 899.523438 472 L 0.476562 472 Z M 0.476562 0 "/></clipPath></defs><g id="9677a3cab4"><g clip-rule="nonzero" clip-path="url(#fe2e346452)"></g><path style=" stroke:none;fill-rule:nonzero;fill:#ef0000;fill-opacity:1;" d="M 873.363281 250.332031 C 849.023438 266.828125 790.367188 261.777344 759.941406 262.113281 C 719.203125 262.621094 678.464844 261.105469 637.726562 262.113281 C 559.460938 264.132812 481.199219 267.332031 402.765625 268.847656 C 321.457031 270.53125 240.152344 271.371094 159.015625 272.71875 C 141.265625 273.054688 123.347656 273.390625 105.597656 273.894531 C 96.808594 274.066406 87.847656 274.402344 79.058594 274.738281 C 75.847656 274.90625 72.636719 274.90625 69.425781 275.074219 C 70.777344 275.410156 71.960938 275.917969 73.3125 276.253906 C 91.566406 281.636719 110.332031 286.183594 129.261719 290.054688 C 113.710938 298.46875 93.933594 296.28125 75.679688 293.082031 C 62.832031 290.726562 32.234375 289.210938 28.347656 273.054688 C 26.65625 266.152344 32.234375 260.601562 38.152344 258.242188 C 48.632812 253.867188 62.324219 254.035156 73.648438 253.195312 C 102.722656 250.835938 131.460938 249.492188 160.367188 248.144531 C 218.175781 245.621094 275.820312 243.769531 333.460938 242.085938 C 449.082031 239.054688 564.535156 236.867188 679.816406 235.859375 C 735.9375 235.519531 824.511719 213.808594 873.363281 250.332031 Z M 873.363281 250.332031 "/></g></svg>