<svg xmlns="http://www.w3.org/2000/svg" xmlns:xlink="http://www.w3.org/1999/xlink" width="1200" zoomAndPan="magnify" viewBox="0 0 900 472.499986" height="630" preserveAspectRatio="xMidYMid meet" version="1.2"><defs><clipPath id="38303fb48e"><path d="M 0.476562 0 L 899.523438 0 L 899.523438 472 L 0.476562 472 Z M 0.476562 0 "/></clipPath><clipPath id="f76acea37b"><path d="M 12 113.71875 L 888 113.71875 L 888 357.957031 L 12 357.957031 Z M 12 113.71875 "/></clipPath></defs><g id="ad13012e05"><g clip-rule="nonzero" clip-path="url(#38303fb48e)"></g><path style=" stroke:none;fill-rule:nonzero;fill:#f34336;fill-opacity:0.996;" d="M 38.605469 164.691406 C 35.464844 164.691406 32.5625 166.734375 31.617188 169.894531 C 30.460938 173.753906 32.65625 177.8125 36.519531 178.964844 C 90.132812 194.96875 139.734375 206.09375 185.328125 212.34375 L 185.320312 212.34375 C 231.394531 219.53125 309.960938 230.292969 421.023438 244.628906 L 421.011719 244.628906 C 560.613281 265.761719 667.617188 281.488281 742.023438 291.804688 C 799.46875 300.003906 836.242188 304.714844 852.335938 305.941406 L 852.328125 305.941406 C 855.121094 306.199219 857.0625 306.328125 858.160156 306.328125 C 858.207031 306.328125 858.25 306.328125 858.296875 306.328125 C 863.035156 306.277344 865.613281 304.042969 866.023438 299.632812 C 866.402344 295.589844 864.496094 292.957031 860.304688 291.734375 C 859.472656 291.492188 858.078125 291.183594 856.121094 290.808594 C 855.984375 290.78125 855.847656 290.757812 855.710938 290.742188 C 750.550781 276.707031 691.078125 268.390625 677.300781 265.789062 L 677.238281 265.777344 C 570.101562 246.460938 372.371094 214.105469 84.050781 168.710938 C 83.664062 168.648438 83.28125 168.621094 82.90625 168.621094 C 79.375 168.621094 76.273438 171.183594 75.707031 174.773438 C 75.699219 174.816406 75.695312 174.855469 75.6875 174.898438 C 64.226562 171.839844 52.5625 168.542969 40.695312 165 C 40 164.792969 39.296875 164.691406 38.605469 164.691406 Z M 38.605469 164.691406 "/><g clip-rule="nonzero" clip-path="url(#f76acea37b)"><path style=" stroke:none;fill-rule:nonzero;fill:#f34336;fill-opacity:0.996;" d="M 880.636719 113.941406 C 880.113281 113.941406 879.578125 114 879.046875 114.117188 C 857.425781 118.917969 837.058594 123.519531 817.941406 127.921875 L 817.914062 127.921875 L 341.527344 235.476562 L 341.449219 235.492188 C 261.230469 254.515625 176.5 277.527344 87.261719 304.535156 L 87.246094 304.535156 C 75.871094 307.585938 66.746094 309.296875 59.871094 309.671875 C 55.847656 309.894531 52.765625 313.328125 52.984375 317.347656 C 53.199219 321.230469 56.417969 324.238281 60.265625 324.238281 C 60.398438 324.238281 60.535156 324.234375 60.671875 324.226562 C 68.609375 323.792969 78.808594 321.898438 91.273438 318.550781 L 91.492188 318.488281 C 180.417969 291.574219 264.835938 268.640625 344.746094 249.691406 L 468.398438 221.773438 L 468.421875 221.773438 C 261.496094 279.285156 119.929688 316.53125 43.726562 333.511719 L 43.507812 333.5625 C 29.265625 337.203125 20.414062 340.171875 16.949219 342.46875 C 13.253906 344.917969 11.886719 348.015625 12.847656 351.761719 C 13.390625 353.882812 14.648438 355.535156 16.621094 356.730469 C 17.800781 357.445312 19.105469 357.785156 20.394531 357.785156 C 22.863281 357.785156 25.269531 356.535156 26.640625 354.273438 C 26.765625 354.070312 26.878906 353.859375 26.980469 353.648438 L 26.960938 353.648438 C 30.316406 352.253906 36.96875 350.285156 46.921875 347.738281 L 46.90625 347.738281 C 149.121094 324.960938 368.316406 265.90625 704.488281 170.578125 L 704.484375 170.578125 C 736.011719 162.269531 774.914062 152.785156 821.1875 142.132812 L 821.160156 142.132812 L 882.214844 128.347656 L 882.238281 128.339844 C 886.164062 127.457031 888.628906 123.5625 887.75 119.636719 C 886.988281 116.25 883.976562 113.941406 880.636719 113.941406 Z M 880.636719 113.941406 "/></g></g></svg>