<svg xmlns="http://www.w3.org/2000/svg" xmlns:xlink="http://www.w3.org/1999/xlink" width="1200" zoomAndPan="magnify" viewBox="0 0 900 472.499986" height="630" preserveAspectRatio="xMidYMid meet" version="1.2"><defs><clipPath id="ace586faee"><path d="M 26 237 L 873 237 L 873 288 L 26 288 Z M 26 237 "/></clipPath><clipPath id="59a4a9947c"><path d="M 23.933594 224.070312 L 874.039062 203.574219 L 876.078125 288.210938 L 25.976562 308.703125 Z M 23.933594 224.070312 "/></clipPath><clipPath id="a974d2eb83"><path d="M 874.015625 203.574219 L 23.910156 224.070312 L 25.953125 308.707031 L 876.054688 288.210938 Z M 874.015625 203.574219 "/></clipPath><clipPath id="01c5248567"><path d="M 874.015625 203.574219 L 23.910156 224.070312 L 25.953125 308.707031 L 876.054688 288.210938 Z M 874.015625 203.574219 "/></clipPath></defs><g id="77483a90de"><g clip-rule="nonzero" clip-path="url(#ace586faee)"><g clip-rule="nonzero" clip-path="url(#59a4a9947c)"><g clip-rule="nonzero" clip-path="url(#a974d2eb83)"><g clip-rule="nonzero" clip-path="url(#01c5248567)"><path style=" stroke:none;fill-rule:nonzero;fill:#ef0000;fill-opacity:1;" d="M 26.613281 260.539062 C 51.34375 276.441406 109.863281 269.980469 140.289062 269.582031 C 181.027344 269.105469 221.714844 266.609375 262.464844 266.636719 C 340.757812 266.769531 419.074219 268.082031 497.523438 267.703125 C 578.84375 267.429688 660.148438 266.308594 741.296875 265.699219 C 759.046875 265.609375 776.96875 265.511719 794.722656 265.589844 C 803.515625 265.546875 812.480469 265.667969 821.277344 265.792969 C 824.492188 265.882812 827.703125 265.804688 830.917969 265.894531 C 829.574219 266.265625 828.402344 266.796875 827.058594 267.167969 C 808.9375 272.992188 790.289062 277.988281 771.457031 282.3125 C 787.207031 290.351562 806.925781 287.6875 825.097656 284.050781 C 837.882812 281.386719 868.433594 279.132812 871.929688 262.886719 C 873.457031 255.949219 867.746094 250.53125 861.773438 248.316406 C 851.191406 244.195312 837.507812 244.691406 826.164062 244.125 C 797.042969 242.46875 768.28125 241.816406 739.351562 241.167969 C 681.496094 240.035156 623.828125 239.574219 566.160156 239.28125 C 450.5 239.039062 335.03125 239.632812 219.753906 241.402344 C 163.644531 242.417969 74.570312 222.847656 26.613281 260.539062 Z M 26.613281 260.539062 "/></g></g></g></g></g></svg>