<svg xmlns="http://www.w3.org/2000/svg" xmlns:xlink="http://www.w3.org/1999/xlink" width="1200" zoomAndPan="magnify" viewBox="0 0 900 472.499986" height="630" preserveAspectRatio="xMidYMid meet" version="1.2"><defs><clipPath id="19c5b1e876"><path d="M 0.476562 0 L 899.523438 0 L 899.523438 472 L 0.476562 472 Z M 0.476562 0 "/></clipPath><clipPath id="543f05aa60"><path d="M 18.007812 176 L 871 176 L 871 294 L 18.007812 294 Z M 18.007812 176 "/></clipPath></defs><g id="d383cf4d5a"><g clip-rule="nonzero" clip-path="url(#19c5b1e876)"><path style=" stroke:none;fill-rule:nonzero;fill:#ffffff;fill-opacity:1;" d="M 0.476562 0 L 899.523438 0 L 899.523438 472 L 0.476562 472 Z M 0.476562 0 "/><path style=" stroke:none;fill-rule:nonzero;fill:#ffffff;fill-opacity:1;" d="M 0.476562 0 L 899.523438 0 L 899.523438 472 L 0.476562 472 Z M 0.476562 0 "/></g><g clip-rule="nonzero" clip-path="url(#543f05aa60)"><path style=" stroke:none;fill-rule:nonzero;fill:#5170ff;fill-opacity:1;" d="M 57.9375 196.109375 C 57.476562 195.644531 58.804688 195.574219 60.171875 195.511719 C 61.542969 195.449219 62.921875 195.425781 64.074219 195.683594 C 65.222656 195.941406 66.363281 196.261719 67.535156 196.609375 C 68.710938 196.957031 69.945312 197.300781 73.609375 198.164062 C 77.269531 199.03125 84.101562 199.613281 91.378906 199.726562 C 98.660156 199.835938 105.910156 199.945312 113.148438 200.035156 C 120.386719 200.121094 127.628906 200.167969 134.871094 200.171875 C 142.117188 200.175781 149.34375 200.152344 167.867188 200.011719 C 186.390625 199.875 214.097656 199.640625 238.675781 199.359375 C 263.253906 199.078125 284.59375 198.851562 302.808594 198.578125 C 321.023438 198.304688 336.0625 198.03125 347.882812 197.796875 C 359.703125 197.566406 368.378906 197.308594 426.320312 195.292969 C 484.261719 193.28125 593.59375 189.511719 616.300781 188.445312 C 639.007812 187.375 660.433594 186.304688 680.539062 185.273438 C 700.644531 184.238281 719.433594 183.253906 736.878906 182.34375 C 754.324219 181.433594 770.449219 180.582031 785.285156 179.761719 C 800.117188 178.945312 813.636719 178.195312 821.28125 177.796875 C 828.925781 177.394531 835.65625 177.085938 841.464844 176.867188 C 847.277344 176.644531 852.167969 176.511719 856.140625 176.46875 C 860.109375 176.421875 863.160156 176.464844 865.285156 176.59375 C 867.410156 176.722656 868.609375 176.9375 870.863281 178.5625 C 873.117188 180.191406 840.898438 212.316406 834.523438 214.613281 C 828.148438 216.910156 817.460938 219.527344 802.460938 222.453125 C 787.460938 225.375 768.148438 228.597656 744.523438 232.105469 C 720.898438 235.609375 693.039062 239.316406 686.601562 240.109375 C 680.164062 240.898438 672.886719 241.710938 664.765625 242.539062 C 656.648438 243.371094 647.691406 244.210938 637.894531 245.0625 C 628.097656 245.910156 617.457031 246.765625 605.980469 247.621094 C 594.503906 248.472656 582.1875 249.324219 551.660156 251.410156 C 521.128906 253.496094 494.523438 255.273438 471.796875 256.792969 C 449.070312 258.308594 430.230469 259.566406 415.269531 260.574219 C 400.308594 261.582031 389.230469 262.339844 382.035156 262.855469 C 374.839844 263.371094 371.527344 263.648438 349.167969 265.796875 C 326.8125 267.949219 305.929688 269.929688 286.597656 271.679688 C 267.261719 273.433594 249.46875 274.976562 233.195312 276.347656 C 216.921875 277.722656 202.175781 278.929688 188.949219 279.996094 C 175.722656 281.058594 163.984375 282.023438 160.375 282.351562 C 156.765625 282.675781 153.613281 283.007812 150.917969 283.324219 C 148.222656 283.644531 145.976562 283.957031 144.179688 284.25 C 142.382812 284.542969 141.035156 284.8125 140.136719 285.046875 C 139.234375 285.285156 169.253906 255.011719 169.597656 255.835938 C 169.945312 256.65625 171.339844 257.371094 173.792969 257.984375 C 176.246094 258.59375 179.746094 259.101562 184.304688 259.5 C 188.859375 259.902344 194.472656 260.195312 201.132812 260.386719 C 207.796875 260.578125 215.511719 260.660156 330.125 260.339844 C 444.742188 260.019531 455.574219 260.109375 468.785156 260.234375 C 481.996094 260.359375 497.589844 260.515625 515.679688 260.597656 C 533.769531 260.679688 554.5 260.542969 577.859375 260.203125 C 601.222656 259.859375 627.289062 259.242188 638.371094 251.8125 C 649.457031 244.382812 609.8125 284.023438 619.691406 293.902344 C 619.691406 293.902344 595.878906 290.648438 570.777344 291.113281 C 545.679688 291.574219 523.257812 291.785156 503.496094 291.757812 C 483.738281 291.734375 466.496094 291.609375 451.746094 291.414062 C 436.996094 291.214844 424.640625 291.042969 362.03125 291.042969 C 299.421875 291.046875 185.042969 291.132812 177.675781 291.011719 C 170.3125 290.890625 164 290.664062 158.742188 290.335938 C 153.484375 290.003906 149.277344 289.570312 146.125 289.027344 C 142.972656 288.488281 140.871094 287.84375 139.824219 287.089844 C 138.777344 286.339844 138.785156 285.484375 154.621094 270.035156 C 170.457031 254.589844 171.503906 254.339844 173 254.0625 C 174.5 253.785156 176.445312 253.484375 178.839844 253.171875 C 181.234375 252.855469 184.082031 252.535156 187.367188 252.226562 C 190.65625 251.917969 194.390625 251.617188 206.574219 250.671875 C 218.757812 249.726562 232.488281 248.617188 247.746094 247.355469 C 263.003906 246.089844 279.78125 244.664062 298.085938 243.054688 C 316.386719 241.445312 336.179688 239.679688 357.5 237.695312 C 378.820312 235.714844 401.683594 233.488281 406.292969 233.132812 C 410.898438 232.777344 419.386719 232.179688 431.761719 231.339844 C 444.132812 230.5 460.386719 229.410156 480.523438 228.0625 C 500.660156 226.71875 524.679688 225.117188 552.554688 223.277344 C 580.425781 221.4375 612.191406 219.320312 624.226562 218.46875 C 636.265625 217.617188 647.460938 216.761719 657.820312 215.910156 C 668.175781 215.054688 677.695312 214.207031 686.371094 213.371094 C 695.050781 212.53125 702.890625 211.707031 709.886719 210.902344 C 716.886719 210.097656 723.042969 209.3125 749.582031 205.582031 C 776.117188 201.851562 798.304688 198.4375 816.179688 195.316406 C 834.054688 192.191406 847.617188 189.371094 856.867188 186.859375 C 866.117188 184.347656 871.054688 182.160156 856.597656 195.382812 C 842.144531 208.605469 838.453125 207.09375 836.941406 206.910156 C 835.433594 206.722656 833 206.625 829.644531 206.609375 C 826.285156 206.597656 822.007812 206.671875 816.8125 206.832031 C 811.613281 206.996094 805.496094 207.246094 798.460938 207.585938 C 791.425781 207.925781 783.476562 208.351562 769.519531 209.128906 C 755.566406 209.898438 740.289062 210.738281 723.660156 211.675781 C 707.03125 212.613281 689.121094 213.566406 669.890625 214.570312 C 650.664062 215.570312 630.117188 216.617188 608.246094 217.710938 C 586.375 218.800781 563.125 219.980469 453.636719 223.90625 C 344.152344 227.832031 337.597656 228.089844 327.839844 228.371094 C 318.085938 228.65625 305.125 228.964844 289.027344 229.242188 C 272.925781 229.523438 253.625 229.820312 231.132812 230.140625 C 208.636719 230.457031 182.976562 230.761719 154.089844 231.113281 C 125.207031 231.464844 117.953125 231.542969 110.714844 231.566406 C 103.472656 231.585938 96.222656 231.570312 88.953125 231.542969 C 81.679688 231.515625 74.390625 231.46875 67.109375 231.378906 C 59.824219 231.292969 52.542969 231.171875 44.40625 231.882812 C 36.269531 232.59375 34.347656 232.898438 32.445312 233.242188 C 30.542969 233.585938 28.671875 233.953125 26.890625 234.289062 C 25.109375 234.628906 23.339844 235.007812 21.929688 235.078125 C 20.519531 235.152344 19.164062 235.214844 18.5 235.25 C 18.296875 235.75 57.476562 195.644531 57.9375 196.109375 Z M 57.9375 196.109375 "/></g></g></svg>